# xmcd
#
# Track frame offsets:
# 150
# 23019
# 39607
# 45882
# 66182
# 95347
# 109532
# 122679
# 136245
# 162257
# 176212
# 199810
# 212012
# 229980
# 246075
# 256217
# 275912
# 287805
# 305097
# 323935
#
# Disc length: 4438 seconds
#
#
# Revision: 0
# Processed by: cddbd v1.5.1PL2 Copyright (c) Steve Scherf et al.
# Submitted via: FreeRIP 2.945 
#
DISCID=26115414
DTITLE=GALEGO ABOIADOR - COLEÇÃO RAÍZES NORDESTINAS
DYEAR=1999
DGENRE=ABOIOS E TOADAS
TTITLE0=O SOFRER DO FAZENDEIRO QUANDO HÁ SECA NO SERTÃO
TTITLE1=MULHER É LAÇO QUE PRENDE O CORAÇÃO DO VAQUEIRO
TTITLE2=ABERTURA DE VAQUEJADA
TTITLE3=CORAÇÃO INGRATO
TTITLE4=A TRISTE SECA DEVORA OS CAMPOS DO MEU SERTÃO
TTITLE5=SOU VAQUEIRO APAIXONADO
TTITLE6=ORGULHO DE CARIRI
TTITLE7=VAQUEIRO VELHO HUMILHADO E O PATRÃO SEM CORAÇÃO
TTITLE8=UMA HOMENAGEM A PETRÚCIO LOCUTOR
TTITLE9=CAVALO BOM FOI PALHAÇO
TTITLE10=QUERO MORRER PECADOR
TTITLE11=AS TRANÇAS DOS TEUS CABELOS
TTITLE12=O SONHO DE UM POETA COM OS VAQUEIROS NO CÉU
TTITLE13=PEDI UM BEIJO CHORANDO, SORRINDO VOCÊ NEGOU
TTITLE14=A FAZENDA BEIRA-RIO
TTITLE15=PRANTO E MORTE DE UM VAQUEIRO
TTITLE16=DESPREZO E INGRATIDÃO
TTITLE17=VAQUEIRO RELAXADO
TTITLE18=TODO NORDESTE ENTRISTECE QUANDO SE ACABA UM VAQUEIRO
TTITLE19=ABOIO LIVRE
EXTD=CIDÃO
EXTT0=
EXTT1=
EXTT2=
EXTT3=
EXTT4=
EXTT5=
EXTT6=
EXTT7=
EXTT8=
EXTT9=
EXTT10=
EXTT11=
EXTT12=
EXTT13=
EXTT14=
EXTT15=
EXTT16=
EXTT17=
EXTT18=
EXTT19=
PLAYORDER=
